<?xml version="1.0" encoding="UTF-8"?>
<!DOCTYPE svg PUBLIC "-//W3C//DTD SVG 1.1//EN" "http://www.w3.org/Graphics/SVG/1.1/DTD/svg11.dtd">
<!-- Creator: CorelDRAW 2020 (64-Bit) -->
<svg xmlns="http://www.w3.org/2000/svg" xml:space="preserve" width="39.3701in" height="39.3701in" version="1.1" style="shape-rendering:geometricPrecision; text-rendering:geometricPrecision; image-rendering:optimizeQuality; fill-rule:evenodd; clip-rule:evenodd"
viewBox="0 0 39370.08 39370.08"
 xmlns:xlink="http://www.w3.org/1999/xlink"
 xmlns:xodm="http://www.corel.com/coreldraw/odm/2003">
 <defs>
  <style type="text/css">
   <![CDATA[
    .fil0 {fill:#373435}
    .fil1 {fill:#373435;fill-rule:nonzero}
   ]]>
  </style>
 </defs>
 <g id="Layer_x0020_1">
  <metadata id="CorelCorpID_0Corel-Layer"/>
  <g id="_2103511965872">
   <path class="fil0" d="M26498.05 19782.3c2659.57,-625.77 5005.42,-1514.93 6730.29,-2478.28 -53.43,-59.11 -95.83,-130.42 -122.66,-212.15 -1597.04,902.14 -3753.32,1746.94 -6199.46,2363.84 -5515.67,1391.01 -11233.42,1080.42 -11759.96,-673.47 -526.54,-1753.87 4098.67,-4301.74 9614.31,-5692.74 5515.64,-1391 10652.67,-1082.02 11179.21,671.86 208.19,693.43 -298.54,1511.24 -1327.96,2332.61 60.14,62.48 106.37,137.52 135.66,218.76 1114.5,-869.29 1672.83,-1746.67 1466.96,-2504.85 -519.9,-1914.63 -5712.97,-2344.02 -11599.07,-959.08 -5886.07,1384.94 -10236.29,4059.8 -9716.37,5974.41 519.88,1914.64 5712.96,2344.03 11599.06,959.09z"/>
   <ellipse class="fil0" transform="matrix(2.29762 -0.0877874 0.0881362 2.30675 32027.7 12090.3)" rx="244.76" ry="243.8"/>
  </g>
  <path class="fil1" d="M17036 17660.67l-881.5 0 -1474.31 -2161.01 0 2161.01 -881.5 0 0 -3503.54 881.5 0 1474.31 2171 0 -2171 881.5 0 0 3503.54zm1505.24 -3503.54l0 2096.13c0,209.61 53.27,370.98 159.81,484.11 106.54,113.12 262.9,169.69 469.1,169.69 206.19,0 364.28,-56.56 474.25,-169.69 109.97,-113.13 164.96,-274.5 164.96,-484.11l0 -2096.13 881.5 0 0 2091.14c0,312.76 -68.73,577.27 -206.2,793.54 -137.46,216.27 -322.19,379.3 -554.15,489.1 -231.97,109.8 -490.58,164.7 -775.82,164.7 -285.24,0 -540.41,-54.07 -765.51,-162.2 -225.1,-108.13 -402.94,-271.17 -533.54,-489.1 -130.59,-217.93 -195.89,-483.28 -195.89,-796.03l0 -2091.14 881.5 0zm4077.57 3538.47c-264.62,0 -501.75,-41.59 -711.38,-124.77 -209.64,-83.18 -377.17,-206.29 -502.61,-369.32 -125.44,-163.03 -191.59,-359.33 -198.46,-588.91l938.2 0c13.74,129.76 60.14,228.74 139.19,296.95 79.04,68.21 182.14,102.31 309.3,102.31 130.59,0 233.69,-29.11 309.3,-87.34 75.61,-58.22 113.41,-138.91 113.41,-242.06 0,-86.5 -30.07,-158.04 -90.21,-214.6 -60.14,-56.56 -134.03,-103.14 -221.67,-139.74 -87.63,-36.6 -212.21,-78.19 -373.73,-124.77 -233.69,-69.87 -424.43,-139.74 -572.2,-209.61 -147.78,-69.87 -274.93,-173.01 -381.46,-309.43 -106.54,-136.41 -159.81,-314.42 -159.81,-534.01 0,-326.07 122,-581.43 366,-766.09 244,-184.66 561.89,-276.99 953.67,-276.99 398.65,0 719.98,92.33 963.98,276.99 244,184.66 374.59,441.69 391.78,771.07l-953.67 0c-6.87,-113.12 -49.83,-202.13 -128.87,-267.01 -79.04,-64.88 -180.42,-97.32 -304.14,-97.32 -106.54,0 -192.45,27.45 -257.75,82.35 -65.3,54.9 -97.94,133.92 -97.94,237.06 0,113.13 54.98,201.3 164.96,264.51 109.97,63.22 281.81,131.43 515.5,204.62 233.69,76.53 423.56,149.72 569.62,219.59 146.06,69.87 272.35,171.35 378.89,304.44 106.54,133.09 159.8,304.44 159.8,514.05 0,199.63 -52.41,380.96 -157.23,544 -104.81,163.03 -256.89,292.79 -456.21,389.28 -199.33,96.49 -434.74,144.74 -706.23,144.74zm4113.66 -653.8l-1350.6 0 -216.51 618.86 -922.74 0 1309.35 -3503.54 1020.68 0 1309.36 3503.54 -933.05 0 -216.51 -618.86zm-226.82 -658.78l-448.48 -1282.63 -443.33 1282.63 891.81 0zm2654.8 618.86l1154.71 0 0 658.78 -2036.21 0 0 -3503.54 881.5 0 0 2844.75zm2458.91 -2844.75l0 3503.54 -881.5 0 0 -3503.54 881.5 0z"/>
  <path class="fil0" d="M37759.82 13741.78l-482 -1.3c-316.66,2.74 -633.84,-1.67 -950.45,-0.11 -154.58,0.76 -347.64,-29.26 -431.73,46.6 -107.62,97.06 -124.31,100.06 -123.08,154.98l-0.06 -3.25 -102.59 97.09 -402.65 381.07 -1555.27 1569.11 1435.87 1434.73c9.74,10.06 21.49,21.81 34.78,34.89 3.57,7.27 9.82,13.03 18.11,17.72 128.1,124.79 362.33,342.29 408.66,422.53 292.7,357.11 263.36,305.56 530.4,305.51l137.7 -0.05 626.86 0.39 0.03 -0.63 410.1 -0.15 0 1.98 809.44 1.79c-41.9,-98.12 -424.43,-446.56 -526.52,-553.76 -14.26,-14.97 -25.3,-26.4 -33.97,-35.05l-576.68 -577.02 0.02 1.1c0,-6.32 -1.59,-10.49 -6.27,-7.35l1.99 2 -1057.49 -1069.04c98.69,-66.93 778.59,-770.07 931.43,-918.55 31.54,-30.68 51.61,-60.71 64.04,-94.26l-0.16 0.44 496.48 -473.22 729.56 -739.3 -386.53 1.13zm-3339.43 1340.01c-168.26,110.61 -646.4,686.42 -816.97,787.13l-1555.37 -1553.24 1427.69 -0.53c267.04,-0.06 181.72,-22.33 520.89,320.09 94.3,95.2 372.15,341.63 423.76,446.54zm-5.94 1843.87l-589.3 580.25c-111.9,112.94 -72.65,122.61 -285.57,122.61l-1473.9 0.96c62.16,-129.1 1388.35,-1365.87 1513.72,-1541.45 72.55,37.02 803.48,770.32 835.04,837.62zm2511.94 -1991.15c-1.11,3.93 -2.3,7.8 -3.59,11.63 1.29,-3.83 2.49,-7.69 3.59,-11.63zm53.74 2124.96c-0.04,1.63 0.02,2.86 0.12,3.75 -0.11,-0.91 -0.15,-2.13 -0.12,-3.75zm0.15 4c0.07,0.52 0.16,0.91 0.27,1.18 -0.11,-0.27 -0.21,-0.65 -0.27,-1.18zm0.52 1.59c0.07,0.07 0.14,0.09 0.22,0.09 -0.08,0 -0.16,-0.03 -0.22,-0.09zm0.22 0.09l0.24 -0.08c-0.09,0.06 -0.17,0.09 -0.24,0.08z"/>
 </g>
</svg>
