<svg width="8135" height="2500" viewBox="0 0 8135 2500" fill="none" xmlns="http://www.w3.org/2000/svg">
<g clip-path="url(#clip0_133_423)">
<mask id="mask0_133_423" style="mask-type:luminance" maskUnits="userSpaceOnUse" x="250" y="250" width="2000" height="2000">
<path d="M1250 2250C1802.28 2250 2250 1802.28 2250 1250C2250 697.715 1802.28 250 1250 250C697.715 250 250 697.715 250 1250C250 1802.28 697.715 2250 1250 2250Z" fill="white"/>
</mask>
<g mask="url(#mask0_133_423)">
<path d="M1678.13 812.5H312.5C278.125 812.5 250 784.375 250 750V312.5C250 278.125 278.125 250 312.5 250H2093.75C2128.13 250 2156.25 278.125 2156.25 312.5V334.375C2153.12 596.875 1940.63 812.5 1678.13 812.5Z" fill="#F0BF1A"/>
</g>
<mask id="mask1_133_423" style="mask-type:luminance" maskUnits="userSpaceOnUse" x="250" y="250" width="2000" height="2000">
<path d="M1250 2250C1802.28 2250 2250 1802.28 2250 1250C2250 697.715 1802.28 250 1250 250C697.715 250 250 697.715 250 1250C250 1802.28 697.715 2250 1250 2250Z" fill="white"/>
</mask>
<g mask="url(#mask1_133_423)">
<path d="M2159.37 2250H256.25V1687.5H1684.38C1946.88 1687.5 2159.37 1900 2159.37 2162.5V2250Z" fill="#3EBEB0"/>
</g>
<mask id="mask2_133_423" style="mask-type:luminance" maskUnits="userSpaceOnUse" x="250" y="250" width="2000" height="2000">
<path d="M1250 2250C1802.28 2250 2250 1802.28 2250 1250C2250 697.715 1802.28 250 1250 250C697.715 250 250 697.715 250 1250C250 1802.28 697.715 2250 1250 2250Z" fill="white"/>
</mask>
<g mask="url(#mask2_133_423)">
<path d="M1565.62 1531.25H150V968.75H1565.62C1721.87 968.75 1846.87 1093.75 1846.87 1250C1846.87 1406.25 1718.75 1531.25 1565.62 1531.25Z" fill="#07A5DE"/>
</g>
<mask id="mask3_133_423" style="mask-type:luminance" maskUnits="userSpaceOnUse" x="250" y="250" width="2000" height="2000">
<path d="M1250 2250C1802.28 2250 2250 1802.28 2250 1250C2250 697.715 1802.28 250 1250 250C697.715 250 250 697.715 250 1250C250 1802.28 697.715 2250 1250 2250Z" fill="white"/>
</mask>
<g mask="url(#mask3_133_423)">
<path d="M1125 968.75H200V1531.25H1125C1146.88 1446.87 1159.37 1353.12 1159.37 1250C1159.37 1146.88 1146.88 1053.13 1125 968.75Z" fill="#231F20"/>
</g>
<path d="M746.875 384.375C578.125 484.375 437.5 634.375 350 812.5H1087.5C1012.5 640.625 893.75 496.875 746.875 384.375Z" fill="#D7A229"/>
<path d="M778.125 2131.25C921.875 2015.62 1037.5 1862.5 1109.38 1687.5H350C443.75 1875 593.75 2031.25 778.125 2131.25Z" fill="#019B8F"/>
</g>
<path d="M3351.13 1102.89H3186.01C3181.3 1075.81 3172.62 1051.82 3159.96 1030.92C3147.3 1009.73 3131.56 991.776 3112.72 977.06C3093.88 962.343 3072.4 951.306 3048.26 943.948C3024.42 936.295 2998.67 932.469 2971 932.469C2921.85 932.469 2878.28 944.831 2840.32 969.554C2802.35 993.984 2772.62 1029.89 2751.13 1077.28C2729.65 1124.37 2718.9 1181.92 2718.9 1249.91C2718.9 1319.07 2729.65 1377.35 2751.13 1424.74C2772.91 1471.83 2802.64 1507.45 2840.32 1531.58C2878.28 1555.42 2921.7 1567.34 2970.56 1567.34C2997.64 1567.34 3022.95 1563.81 3046.5 1556.75C3070.34 1549.39 3091.68 1538.65 3110.51 1524.52C3129.64 1510.39 3145.69 1493.02 3158.64 1472.42C3171.88 1451.82 3181.01 1428.27 3186.01 1401.78L3351.13 1402.66C3344.95 1445.64 3331.56 1485.96 3310.95 1523.63C3290.64 1561.31 3264.01 1594.57 3231.04 1623.41C3198.08 1651.96 3159.52 1674.33 3115.37 1690.52C3071.22 1706.41 3022.21 1714.36 2968.35 1714.36C2888.88 1714.36 2817.95 1695.97 2755.55 1659.17C2693.15 1622.38 2644 1569.26 2608.09 1499.79C2572.18 1430.33 2554.22 1347.04 2554.22 1249.91C2554.22 1152.48 2572.33 1069.19 2608.53 1000.02C2644.73 930.555 2694.03 877.428 2756.43 840.637C2818.83 803.845 2889.47 785.45 2968.35 785.45C3018.68 785.45 3065.48 792.514 3108.75 806.642C3152.01 820.77 3190.57 841.52 3224.42 868.893C3258.27 895.971 3286.08 929.231 3307.86 968.671C3329.94 1007.82 3344.36 1052.56 3351.13 1102.89ZM3501.13 1702V797.812H3664.92V1180.59H4083.91V797.812H4248.14V1702H4083.91V1317.9H3664.92V1702H3501.13ZM4426.29 1702V797.812H4765.36C4834.82 797.812 4893.1 809.879 4940.19 834.014C4987.58 858.15 5023.34 891.998 5047.48 935.559C5071.91 978.826 5084.12 1029.3 5084.12 1086.99C5084.12 1144.98 5071.76 1195.31 5047.03 1237.99C5022.6 1280.37 4986.55 1313.19 4938.87 1336.44C4891.19 1359.4 4832.61 1370.88 4763.15 1370.88H4521.65V1234.89H4741.08C4781.69 1234.89 4814.95 1229.3 4840.85 1218.12C4866.76 1206.64 4885.89 1190.01 4898.25 1168.23C4910.91 1146.15 4917.23 1119.08 4917.23 1086.99C4917.23 1054.91 4910.91 1027.54 4898.25 1004.87C4885.59 981.916 4866.31 964.551 4840.41 952.777C4814.51 940.71 4781.11 934.676 4740.19 934.676H4590.08V1702H4426.29ZM4893.39 1292.29L5117.23 1702H4934.45L4714.59 1292.29H4893.39ZM6042.83 1249.91C6042.83 1347.33 6024.58 1430.77 5988.09 1500.24C5951.88 1569.4 5902.44 1622.38 5839.74 1659.17C5777.35 1695.97 5706.56 1714.36 5627.38 1714.36C5548.21 1714.36 5477.27 1695.97 5414.58 1659.17C5352.18 1622.09 5302.74 1568.96 5266.24 1499.79C5230.04 1430.33 5211.93 1347.04 5211.93 1249.91C5211.93 1152.48 5230.04 1069.19 5266.24 1000.02C5302.74 930.555 5352.18 877.428 5414.58 840.637C5477.27 803.845 5548.21 785.45 5627.38 785.45C5706.56 785.45 5777.35 803.845 5839.74 840.637C5902.44 877.428 5951.88 930.555 5988.09 1000.02C6024.58 1069.19 6042.83 1152.48 6042.83 1249.91ZM5878.15 1249.91C5878.15 1181.33 5867.41 1123.49 5845.93 1076.4C5824.73 1029.01 5795.3 993.248 5757.63 969.113C5719.95 944.683 5676.54 932.469 5627.38 932.469C5578.23 932.469 5534.82 944.683 5497.14 969.113C5459.47 993.248 5429.89 1029.01 5408.4 1076.4C5387.21 1123.49 5376.61 1181.33 5376.61 1249.91C5376.61 1318.49 5387.21 1376.47 5408.4 1423.86C5429.89 1470.95 5459.47 1506.71 5497.14 1531.14C5534.82 1555.28 5578.23 1567.34 5627.38 1567.34C5676.54 1567.34 5719.95 1555.28 5757.63 1531.14C5795.3 1506.71 5824.73 1470.95 5845.93 1423.86C5867.41 1376.47 5878.15 1318.49 5878.15 1249.91ZM6197.69 797.812H6398.13L6666.56 1452.99H6677.16L6945.59 797.812H7146.03V1702H6988.85V1080.81H6980.47L6730.58 1699.35H6613.14L6363.25 1079.49H6354.86V1702H6197.69V797.812ZM7440.51 1702H7265.67L7583.99 797.812H7786.2L8104.96 1702H7930.13L7688.63 983.241H7681.56L7440.51 1702ZM7446.25 1347.48H7923.06V1479.04H7446.25V1347.48Z" fill="white"/>
<defs>
<clipPath id="clip0_133_423">
<rect width="2500" height="2500" fill="white"/>
</clipPath>
</defs>
</svg>
