<svg width="2500" height="422" viewBox="0 0 2500 422" fill="none" xmlns="http://www.w3.org/2000/svg">
<g clip-path="url(#clip0_133_349)">
<path d="M643.629 114.139C638.227 114.119 632.875 115.169 627.881 117.23C622.888 119.291 618.353 122.321 614.537 126.145L583.247 157.352C579.069 161.527 575.842 166.556 573.79 172.095C571.737 177.633 570.907 183.55 571.355 189.44L571.552 191.42C572.618 200.512 576.742 208.972 583.247 215.411C587.757 219.911 592.723 222.762 598.757 224.743C599.068 226.557 599.245 228.392 599.245 230.237C599.245 238.501 596.031 246.266 590.183 252.082L588.255 254.011C577.804 250.444 569.095 245.229 561.226 237.381C550.818 227.05 543.842 213.765 541.247 199.331L540.895 197.33L539.308 198.616C538.244 199.476 537.226 200.393 536.26 201.363L504.97 232.57C499.22 238.312 495.305 245.633 493.721 253.603C492.137 261.573 492.955 269.834 496.073 277.339C499.19 284.843 504.466 291.253 511.231 295.755C517.997 300.257 525.947 302.648 534.073 302.625C539.473 302.636 544.823 301.582 549.815 299.521C554.807 297.461 559.344 294.436 563.165 290.619L594.465 259.412C598.278 255.602 601.303 251.077 603.366 246.097C605.43 241.117 606.492 235.779 606.492 230.388C606.492 224.997 605.43 219.659 603.366 214.679C601.303 209.699 598.278 205.174 594.465 201.363C590.183 197.098 585.005 193.839 579.307 191.825C578.41 186.484 578.812 181.006 580.479 175.854C582.147 170.701 585.031 166.027 588.887 162.225C599.293 165.746 608.745 171.621 616.507 179.394C626.902 189.733 633.872 203.015 636.475 217.444L636.838 219.445L638.425 218.159C639.503 217.298 640.519 216.365 641.493 215.391L672.783 184.184C678.536 178.442 682.453 171.122 684.037 163.15C685.622 155.179 684.803 146.917 681.683 139.412C678.564 131.907 673.286 125.498 666.518 120.999C659.75 116.499 651.798 114.111 643.671 114.139H643.629Z" fill="white"/>
<path d="M626.865 0.0103678H217.441C100.762 0.0103678 5.86523 94.6683 5.86523 211.005C5.86523 327.352 100.772 422 217.43 422H626.854C743.523 422 838.43 327.342 838.43 211.016C838.43 94.6475 743.523 0 626.865 0V0.0103678ZM424.921 330.815C418.171 332.205 410.572 332.453 405.409 327.083C403.511 331.437 399.064 329.146 395.632 328.576C395.321 329.457 395.041 330.235 394.751 331.126C383.346 331.883 374.793 320.282 369.36 311.531C358.577 305.705 346.323 302.159 335.302 296.063C334.659 306.099 336.857 318.561 327.277 325.03C326.79 344.335 356.556 327.311 359.293 341.702C357.178 341.93 354.835 341.359 353.134 342.987C345.369 350.514 336.463 337.285 327.515 342.749C315.489 348.783 314.286 353.728 299.419 354.972C298.589 353.728 298.931 352.899 299.626 352.142C303.815 347.29 304.115 341.567 311.259 339.493C303.898 338.342 297.75 342.396 291.55 345.61C283.483 348.897 283.546 338.176 271.146 346.17C269.777 345.05 270.43 344.034 271.218 343.174C274.37 339.338 278.517 338.767 283.193 338.975C260.187 326.191 249.363 354.609 238.736 340.478C235.543 341.318 234.34 344.19 232.329 346.212C230.597 344.314 231.914 342.013 231.987 339.783C229.913 338.809 227.29 338.342 227.902 335.025C223.848 333.656 221.007 336.061 217.98 338.342C215.253 336.238 219.825 333.158 220.675 330.96C223.101 326.741 228.648 330.09 231.458 327.052C239.462 322.521 250.607 329.882 259.752 328.638C266.802 329.519 275.511 322.314 271.975 315.108C264.448 305.508 265.775 292.952 265.609 281.475C264.676 274.788 248.575 266.265 243.92 259.05C238.166 252.549 233.687 245.022 229.198 237.609C213.014 206.36 218.104 166.216 197.711 137.197C188.483 142.277 176.478 139.882 168.515 133.06C164.223 136.969 164.036 142.08 163.694 147.492C153.388 137.228 154.674 117.809 162.916 106.373C166.264 101.959 170.264 98.0785 174.777 94.8653C175.793 94.1395 176.135 93.4138 176.115 92.2733C184.264 55.7372 239.814 62.7769 257.377 88.6653C270.119 104.601 273.966 125.678 288.419 140.473C307.858 161.696 330.014 180.389 347.95 202.991C364.922 223.644 377.042 247.863 387.617 272.279C391.93 280.386 391.972 290.319 398.369 297.244C401.521 301.423 416.927 312.796 413.578 316.819C415.507 320.997 429.887 326.762 424.9 330.815H424.921ZM694.753 206.153L663.463 237.36C655.137 245.674 644.904 251.825 633.655 255.276L633.075 255.442L632.868 255.991C629.268 265.523 623.664 274.171 616.435 281.351L585.134 312.558C578.426 319.276 570.453 324.599 561.677 328.22C552.901 331.841 543.494 333.689 534 333.656C524.506 333.689 515.1 331.841 506.323 328.22C497.547 324.599 489.575 319.276 482.866 312.558C476.161 305.865 470.841 297.915 467.212 289.164C463.582 280.413 461.714 271.032 461.714 261.559C461.714 252.085 463.582 242.704 467.212 233.953C470.841 225.202 476.161 217.252 482.866 210.559L514.156 179.352C522.459 171.046 532.683 164.917 543.922 161.509L544.492 161.333L544.7 160.784C548.323 151.227 553.943 142.553 561.185 135.341L592.485 104.134C599.193 97.4159 607.166 92.0927 615.942 88.4715C624.718 84.8503 634.125 83.0028 643.619 83.0356C662.955 83.0356 681.109 90.5315 694.753 104.134C701.483 110.81 706.819 118.758 710.45 127.515C714.081 136.272 715.934 145.664 715.903 155.144C715.903 174.428 708.397 192.54 694.753 206.132V206.153Z" fill="white"/>
<path d="M297.637 293.046C294.889 303.725 294.008 321.889 280.074 322.408C278.933 328.577 284.355 330.899 289.301 328.908C294.194 326.679 296.517 330.681 298.165 334.673C305.723 335.772 316.89 332.164 317.315 323.237C306.034 316.757 302.551 304.44 297.657 293.025L297.637 293.046ZM1034.44 110.604H997.276V336.062H1156.69V300.148H1034.44V110.604ZM1343.53 336.062H1380.7V335.668H1381.18L1381.26 334.009C1381.27 333.522 1381.4 329.012 1380.72 322.066V238.149C1380.72 206.579 1403.73 192.219 1425.12 192.219C1448.13 192.219 1459.33 204.609 1459.33 230.134V336.062H1496.49V225.179C1496.49 183.065 1469.74 156.896 1426.68 156.896C1408.38 156.896 1392.05 162.101 1379.22 171.971L1378.88 159.986H1343.58V336.062H1343.53ZM1647.76 172.925C1634.84 162.433 1618.23 156.896 1599.5 156.896C1549.38 156.896 1518.25 191.463 1518.25 247.096C1518.25 302.73 1549.38 337.607 1599.5 337.607C1617.18 337.607 1632.96 332.786 1645.39 323.631C1644.32 350.919 1627.22 367.134 1599.2 367.134C1575.63 367.134 1562.3 359.628 1559.56 344.844L1559.22 342.998L1523.11 354.019L1523.43 355.502C1529.53 384.894 1557.03 402.447 1597.04 402.447C1624.18 402.447 1645.47 395.055 1660.33 380.467C1675.32 365.766 1682.91 344.574 1682.91 317.504V159.986H1648.53L1647.78 172.925H1647.76ZM1645.44 248.641C1645.44 282.233 1629.08 302.305 1601.66 302.305C1572.26 302.305 1555.41 282.191 1555.41 247.107C1555.41 212.032 1572.27 192.209 1601.66 192.209C1628.41 192.209 1645.17 212.177 1645.44 244.318V248.651V248.641ZM1866.03 264.566C1858.33 289.49 1838.55 303.227 1810.35 303.227C1770.03 303.227 1744.96 272.611 1744.96 223.323C1744.96 174.045 1770.25 143.429 1810.97 143.429C1839.15 143.429 1855.39 154.47 1863.65 179.229L1867.51 190.809L1902.6 174.325L1899.3 165.056C1885.94 127.4 1855.08 107.515 1810.05 107.515C1779.45 107.515 1753.48 118.556 1734.93 139.447C1716.58 160.142 1706.87 189.13 1706.87 223.344C1706.87 293.699 1747.48 339.172 1810.35 339.172C1854.65 339.172 1888.97 315.99 1902.13 277.152L1905.49 267.23L1869.44 253.524L1866.01 264.587L1866.03 264.566ZM2004.84 156.896C1987.09 156.896 1971.3 161.769 1958.9 170.997V89.0081H1921.73V336.093H1958.9V238.169C1958.9 206.403 1981.9 191.929 2003.3 191.929C2026.31 191.929 2037.51 204.329 2037.51 229.844V336.104H2074.68V224.899C2074.68 183.604 2047.27 156.927 2004.86 156.927L2004.84 156.896ZM2291.92 83.6895C2278.11 83.6895 2268.09 93.7151 2268.09 107.515C2268.09 121.325 2278.11 131.35 2291.92 131.35C2305.72 131.35 2315.75 121.325 2315.75 107.515C2315.75 93.7151 2305.72 83.6895 2291.92 83.6895ZM2424.28 156.896C2405.98 156.896 2389.66 162.101 2376.83 171.971L2376.48 159.986H2341.19V336.062H2378.36V238.149C2378.36 206.579 2401.36 192.219 2422.76 192.219C2445.77 192.219 2456.97 204.609 2456.97 230.134V336.062H2494.14V225.179C2494.14 183.065 2467.38 156.896 2424.32 156.896H2424.28ZM2309.97 159.996H2272.99V247.272C2262.73 238.657 2250.64 232.135 2236.99 227.874V218.999C2236.99 180.12 2211.47 156.896 2168.7 156.896C2133.96 156.896 2107.98 173.215 2097.39 201.633L2094.54 209.306L2124.34 231.265L2129.45 217.942C2136.19 200.379 2148.67 192.199 2168.7 192.199C2188.74 192.199 2199.82 201.841 2199.82 220.835V221.83C2198.63 221.778 2197.43 221.743 2196.23 221.726C2156.44 221.094 2127.41 230.394 2109.95 249.346C2092.08 268.734 2093.65 290.506 2093.89 292.911L2094.05 294.591H2094.22C2097 321.713 2120.69 339.121 2155.12 339.121C2174.08 339.121 2191.6 333.843 2204.85 324.191L2205 336.052H2236.99V280.968L2236.3 280.47C2231.78 277.152 2223.89 272.881 2212.02 271.377C2208.52 270.913 2204.99 270.702 2201.46 270.745H2199.8V275.805C2199.8 287.448 2186.42 303.849 2156.64 303.849C2134.66 303.849 2131.39 294.601 2131.39 289.086V288.526C2131.55 286.048 2132.59 279.993 2138.05 274.363C2144.99 267.199 2160.6 258.812 2195.62 259.341C2220.96 259.745 2240.41 266.826 2253.44 280.418C2269.41 297.09 2272.42 319.919 2272.97 328.867V336.062H2309.95V159.996H2309.97ZM1247.43 156.129C1212.69 156.129 1186.71 172.438 1176.12 200.866L1173.27 208.538L1203.07 230.497L1208.18 217.175C1214.92 199.612 1227.4 191.421 1247.43 191.421C1267.47 191.421 1278.55 201.063 1278.55 220.067V224.525L1240.28 231.285C1195.4 239.217 1172.65 258.407 1172.65 288.287C1172.65 318.167 1196.66 338.364 1233.83 338.364C1252.8 338.364 1270.31 333.076 1283.56 323.434L1283.72 335.285H1315.7V218.232C1315.7 179.343 1290.19 156.129 1247.43 156.129ZM1278.55 259.361V275.048C1278.55 286.701 1265.16 303.093 1235.38 303.093C1213.4 303.093 1210.14 293.855 1210.14 288.339C1210.14 283.435 1210.14 271.979 1249.07 264.752L1278.55 259.361Z" fill="white"/>
</g>
<defs>
<clipPath id="clip0_133_349">
<rect width="2500" height="422" fill="white"/>
</clipPath>
</defs>
</svg>
