<?xml version="1.0" encoding="UTF-8"?>
<!DOCTYPE svg PUBLIC "-//W3C//DTD SVG 1.1//EN" "http://www.w3.org/Graphics/SVG/1.1/DTD/svg11.dtd">
<!-- Creator: CorelDRAW 2020 (64-Bit) -->
<svg xmlns="http://www.w3.org/2000/svg" xml:space="preserve" width="38.9738in" height="14.5137in" version="1.1" style="shape-rendering:geometricPrecision; text-rendering:geometricPrecision; image-rendering:optimizeQuality; fill-rule:evenodd; clip-rule:evenodd"
viewBox="0 0 21970.39 8181.7"
 xmlns:xlink="http://www.w3.org/1999/xlink"
 xmlns:xodm="http://www.corel.com/coreldraw/odm/2003">
 <defs>
  <style type="text/css">
   <![CDATA[
    .fil0 {fill:#FEFEFE}
    .fil2 {fill:url(#id0)}
    .fil1 {fill:url(#id1);fill-rule:nonzero}
   ]]>
  </style>
  <linearGradient id="id0" gradientUnits="userSpaceOnUse" x1="19452.74" y1="5208.84" x2="20486.66" y2="2231.23">
   <stop offset="0" style="stop-opacity:1; stop-color:#6257FF"/>
   <stop offset="0.286275" style="stop-opacity:1; stop-color:#8F68FF"/>
   <stop offset="0.560784" style="stop-opacity:1; stop-color:#BC79FF"/>
   <stop offset="0.866667" style="stop-opacity:1; stop-color:#D88DFF"/>
   <stop offset="1" style="stop-opacity:1; stop-color:#F4A1FF"/>
  </linearGradient>
  <linearGradient id="id1" gradientUnits="userSpaceOnUse" x1="8764.16" y1="6234.38" x2="7316.31" y2="1082.1">
   <stop offset="0" style="stop-opacity:1; stop-color:#6652FA"/>
   <stop offset="0.180392" style="stop-opacity:1; stop-color:#7451F9"/>
   <stop offset="0.368627" style="stop-opacity:1; stop-color:#824FF7"/>
   <stop offset="0.729412" style="stop-opacity:1; stop-color:#C875FF"/>
   <stop offset="1" style="stop-opacity:1; stop-color:#F6A6FF"/>
  </linearGradient>
 </defs>
 <g id="Layer_x0020_1">
  <metadata id="CorelCorpID_0Corel-Layer"/>
  <g id="_2252270192720">
   <path class="fil0" d="M11405.34 7448.8c5311.36,-1249.72 9236.8,-3663.4 8767.68,-5391.08 -228.43,-841.25 -1456.92,-1364.6 -3270.33,-1536.05 0.29,-11 0.26,-22.07 -0.16,-33.23 -10.72,-280.27 -246.59,-498.78 -526.86,-488.07 -258.94,9.89 -465.13,211.97 -486.6,463.69 -1760.38,-40.38 -3914.32,194.52 -6182.6,728.23 -5311.35,1249.71 -9236.81,3663.4 -8767.66,5391.07 469.12,1727.7 5155.15,2115.16 10466.53,865.44zm5470.81 -6778.02c-65.62,193.64 -245.23,336.25 -461.71,344.52 -246.89,9.43 -459.3,-159.04 -513.72,-390.89 -1735.46,-24.06 -3865.95,230.94 -6063.22,785.08 -4977.1,1255.19 -9150.7,3554.28 -8675.57,5136.91 475.13,1582.63 5634.6,1862.9 10611.71,607.71 4977.11,-1255.19 8626.66,-3555.72 8151.52,-5138.35 -224.12,-746.55 -1374.25,-1202.82 -3049.03,-1344.98z"/>
   <path class="fil1" d="M2921.18 5245.7l-795.42 0 -1330.35 -1949.99 0 1949.99 -795.42 0 0 -3161.41 795.42 0 1330.35 1958.99 0 -1958.99 795.42 0 0 3161.41zm1358.26 -3161.41l0 1891.44c0,189.14 48.07,334.76 144.2,436.83 96.13,102.08 237.23,153.12 423.29,153.12 186.06,0 328.71,-51.04 427.94,-153.12 99.23,-102.08 148.85,-247.69 148.85,-436.83l0 -1891.44 795.42 0 0 1886.94c0,282.22 -62.02,520.9 -186.06,716.05 -124.04,195.15 -290.72,342.26 -500.04,441.34 -209.32,99.08 -442.67,148.61 -700.06,148.61 -257.39,0 -487.64,-48.79 -690.76,-146.36 -203.12,-97.57 -363.6,-244.69 -481.44,-441.34 -117.84,-196.65 -176.76,-436.08 -176.76,-718.3l0 -1886.94 795.42 0zm3679.39 3192.93c-238.78,0 -452.75,-37.53 -641.91,-112.59 -189.16,-75.06 -340.34,-186.14 -453.53,-333.25 -113.19,-147.11 -172.88,-324.25 -179.08,-531.41l846.58 0c12.4,117.09 54.27,206.41 125.59,267.95 71.33,61.55 164.36,92.32 279.1,92.32 117.84,0 210.87,-26.27 279.09,-78.81 68.22,-52.54 102.34,-125.35 102.34,-218.42 0,-78.06 -27.13,-142.61 -81.4,-193.65 -54.27,-51.04 -120.94,-93.07 -200.02,-126.1 -79.07,-33.03 -191.49,-70.55 -337.24,-112.59 -210.87,-63.05 -382.98,-126.1 -516.32,-189.14 -133.34,-63.05 -248.08,-156.12 -344.21,-279.21 -96.13,-123.09 -144.2,-283.72 -144.2,-481.87 0,-294.22 110.09,-524.65 330.26,-691.28 220.17,-166.63 507.02,-249.94 860.54,-249.94 359.72,0 649.67,83.32 869.84,249.94 220.18,166.63 338.02,398.55 353.52,695.78l-860.54 0c-6.2,-102.08 -44.96,-182.39 -116.29,-240.93 -71.32,-58.54 -162.8,-87.82 -274.44,-87.82 -96.13,0 -173.66,24.77 -232.58,74.31 -58.92,49.54 -88.38,120.84 -88.38,213.91 0,102.08 49.62,181.64 148.85,238.68 99.23,57.04 254.29,118.59 465.15,184.64 210.87,69.05 382.21,135.1 514,198.15 131.79,63.05 245.76,154.62 341.89,274.71 96.13,120.09 144.2,274.71 144.2,463.85 0,180.14 -47.29,343.76 -141.87,490.87 -94.58,147.11 -231.8,264.2 -411.66,351.27 -179.86,87.07 -392.28,130.6 -637.26,130.6zm3711.95 -589.95l-1218.71 0 -195.36 558.43 -832.63 0 1181.5 -3161.41 921.01 0 1181.5 3161.41 -841.93 0 -195.36 -558.43zm-204.67 -594.45l-404.69 -1157.38 -400.03 1157.38 804.72 0zm2395.56 558.43l1041.95 0 0 594.45 -1837.37 0 0 -3161.41 795.42 0 0 2566.96zm2218.8 -2566.96l0 3161.41 -795.42 0 0 -3161.41 795.42 0z"/>
   <path class="fil2" d="M21621.6 1709.46l-434.94 -1.18c-285.74,2.47 -571.95,-1.51 -857.65,-0.1 -139.49,0.69 -313.7,-26.4 -389.58,42.05 -97.12,87.59 -112.17,90.28 -111.06,139.85l-0.05 -2.93 -92.57 87.61 -363.33 343.86 -1403.41 1415.9 1295.66 1294.64c8.79,9.07 19.39,19.68 31.38,31.49 3.22,6.56 8.86,11.76 16.34,15.99 115.59,112.6 326.95,308.87 368.76,381.27 264.12,322.24 237.64,275.73 478.61,275.68l124.25 -0.04 565.65 0.36 0.02 -0.57 370.06 -0.14 0 1.79 730.41 1.62c-37.81,-88.54 -382.98,-402.96 -475.11,-499.69 -12.87,-13.51 -22.83,-23.82 -30.66,-31.63l-520.37 -520.68 0.02 0.99c0,-5.71 -1.44,-9.46 -5.65,-6.64l1.79 1.8 -954.24 -964.66c89.05,-60.4 702.56,-694.88 840.48,-828.86 28.46,-27.68 46.57,-54.79 57.78,-85.06l-0.14 0.4 448 -427.01 658.32 -667.12 -348.79 1.02zm-3013.37 1209.17c-151.83,99.82 -583.28,619.4 -737.2,710.28l-1403.5 -1401.58 1288.29 -0.47c240.97,-0.05 163.97,-20.15 470.03,288.84 85.09,85.91 335.8,308.27 382.38,402.94zm-5.37 1663.84l-531.75 523.6c-100.97,101.91 -65.55,110.63 -257.69,110.64l-1329.99 0.87c56.09,-116.5 1252.79,-1232.51 1365.91,-1390.94 65.47,33.41 725.03,695.11 753.51,755.84zm2266.67 -1796.73c-1,3.55 -2.07,7.04 -3.24,10.5 1.16,-3.45 2.24,-6.94 3.24,-10.5zm48.5 1917.49c-0.03,1.47 0.02,2.58 0.11,3.38 -0.1,-0.82 -0.14,-1.92 -0.11,-3.38zm0.14 3.6c0.07,0.47 0.14,0.82 0.25,1.07 -0.1,-0.25 -0.19,-0.59 -0.25,-1.07zm0.47 1.44c0.06,0.06 0.13,0.08 0.2,0.08 -0.08,0 -0.14,-0.03 -0.2,-0.08zm0.2 0.08l0.22 -0.08c-0.08,0.05 -0.15,0.09 -0.22,0.08z"/>
  </g>
 </g>
</svg>
