<svg width="577" height="595" viewBox="0 0 577 595" fill="none" xmlns="http://www.w3.org/2000/svg">
<path d="M430.823 433.201C434.6 401.733 433.468 397.118 456.907 402.215L462.857 402.738C480.88 403.558 504.456 399.839 518.307 393.405C548.123 379.57 565.803 356.471 536.403 362.541C469.34 376.375 464.729 353.667 464.729 353.667C535.544 248.597 565.147 115.219 539.595 82.5714C469.901 -6.48065 349.264 35.63 347.245 36.7233L346.603 36.842C333.352 34.0927 318.523 32.45 301.864 32.1807C271.516 31.682 248.488 40.1367 231.02 53.386C231.02 53.386 15.8092 -35.278 25.8212 164.89C27.9506 207.471 86.8572 487.097 157.115 402.637C182.793 371.753 207.609 345.639 207.609 345.639C219.932 353.826 234.685 358.002 250.159 356.502L251.355 355.482C250.98 359.317 251.145 363.067 251.833 367.507C233.737 387.73 239.055 391.281 202.869 398.729C166.26 406.274 187.768 419.707 201.807 423.218C218.831 427.475 258.213 433.506 284.831 396.253L283.771 400.503C290.871 406.183 290.391 441.329 291.397 466.439C292.405 491.551 294.087 514.985 299.205 528.801C304.324 542.614 310.364 578.201 357.92 568.009C397.665 559.491 428.053 547.234 430.823 433.201Z" fill="black" stroke="black" stroke-width="49.8604"/>
<path d="M536.41 362.538C469.341 376.373 464.73 353.665 464.73 353.665C535.545 248.587 565.147 115.207 539.601 82.5633C469.907 -6.48336 349.265 35.63 347.251 36.7233L346.603 36.8393C333.353 34.0886 318.523 32.45 301.857 32.178C271.509 31.6806 248.489 40.134 231.021 53.3806C231.021 53.3806 15.8058 -35.2794 25.8152 164.887C27.9445 207.471 86.8499 487.097 157.11 402.637C182.79 371.753 207.602 345.639 207.602 345.639C219.926 353.826 234.679 358.002 250.146 356.502L251.347 355.482C250.974 359.317 251.145 363.067 251.829 367.507C233.729 387.73 239.047 391.281 202.865 398.729C166.253 406.274 187.761 419.707 201.803 423.218C218.827 427.475 258.213 433.506 284.825 396.253L283.763 400.503C290.855 406.183 295.835 437.451 295.001 465.795C294.166 494.141 293.609 513.601 299.197 528.801C304.785 544.001 310.354 578.201 357.919 568.009C397.665 559.491 418.261 537.419 421.126 500.602C423.159 474.427 427.761 478.297 428.051 454.895L431.742 443.817C435.998 408.335 432.418 396.889 456.905 402.213L462.855 402.735C480.878 403.555 504.466 399.837 518.31 393.402C548.121 379.567 565.801 356.469 536.407 362.538H536.41Z" fill="#336791"/>
<path d="M287.703 382.877C285.857 448.898 288.167 515.38 294.627 531.537C301.091 547.694 314.925 579.121 362.494 568.93C402.235 560.41 416.695 543.922 422.97 507.529C427.591 480.753 436.501 406.39 437.643 391.154" stroke="white" stroke-width="16.6201" stroke-linecap="round" stroke-linejoin="round"/>
<path d="M230.688 51.9065C230.688 51.9065 15.3266 -36.1148 25.3386 164.052C27.4679 206.636 86.3772 486.27 156.636 401.806C182.311 370.918 205.531 346.693 205.531 346.693" stroke="white" stroke-width="16.6201" stroke-linecap="round" stroke-linejoin="round"/>
<path d="M347.015 35.8409C339.56 38.1782 466.812 -10.6778 539.131 81.7302C564.676 114.376 535.073 247.756 464.26 352.836" stroke="white" stroke-width="16.6201" stroke-linecap="round" stroke-linejoin="round"/>
<path d="M464.259 352.835C464.259 352.835 468.873 375.55 535.944 361.706C565.331 355.637 547.645 378.738 517.841 392.579C493.381 403.931 438.543 406.841 437.647 391.154C435.342 350.681 466.508 362.977 464.259 352.835ZM464.259 352.835C462.226 343.702 448.288 334.738 439.068 312.385C431.019 292.874 328.673 143.253 467.451 165.474C472.535 164.422 431.256 33.4715 301.38 31.3421C171.533 29.2128 175.793 191.025 175.793 191.025" stroke="white" stroke-width="16.6201" stroke-linecap="round" stroke-linejoin="bevel"/>
<path d="M251.355 366.676C233.252 386.898 238.576 390.448 202.391 397.899C165.779 405.446 187.289 418.876 201.328 422.386C218.352 426.646 257.737 432.676 284.349 395.414C292.453 384.068 284.301 365.966 273.169 361.351C267.791 359.123 260.599 356.331 251.355 366.676Z" stroke="white" stroke-width="16.6201" stroke-linecap="round" stroke-linejoin="round"/>
<path d="M250.169 366.324C248.345 354.434 254.076 340.286 260.217 323.734C269.446 298.9 290.741 274.061 273.706 195.282C261.009 136.577 175.845 183.065 175.792 191.025C175.74 198.982 179.644 231.372 174.369 269.089C167.486 318.306 205.686 359.932 249.674 355.673" stroke="white" stroke-width="16.6201" stroke-linecap="round" stroke-linejoin="round"/>
<path d="M229.906 189.832C229.522 192.551 234.883 199.805 241.874 200.775C248.853 201.748 254.826 196.079 255.205 193.363C255.583 190.644 250.229 187.649 243.235 186.676C236.253 185.701 230.277 187.12 229.907 189.832H229.906Z" fill="white" stroke="white" stroke-width="5.54"/>
<path d="M442.471 184.289C442.849 187.008 437.495 194.263 430.503 195.232C423.519 196.205 417.545 190.536 417.163 187.82C416.793 185.101 422.149 182.107 429.135 181.133C436.12 180.16 442.092 181.577 442.471 184.291V184.289Z" fill="white" stroke="white" stroke-width="2.77"/>
<path d="M467.45 165.475C468.601 186.8 462.857 201.325 462.133 224.027C461.061 257.024 477.865 294.792 452.545 332.607" stroke="white" stroke-width="16.6201" stroke-linecap="round" stroke-linejoin="round"/>
</svg>
