<svg width="1461" height="406" viewBox="0 0 1461 406" fill="none" xmlns="http://www.w3.org/2000/svg">
<path d="M258.731 221.682L206.139 193.882L114.847 145.632C114.764 145.548 114.597 145.548 114.514 145.548C111.181 143.965 107.764 147.298 109.014 150.632L155.531 269.274L155.539 269.299C155.589 269.415 155.631 269.532 155.681 269.649C157.589 274.074 161.756 276.807 166.289 277.882C166.673 277.965 166.947 278.041 167.407 278.133C167.865 278.235 168.506 278.374 169.056 278.415C169.148 278.424 169.231 278.424 169.323 278.432H169.389C169.456 278.44 169.523 278.44 169.589 278.449H169.681C169.739 278.457 169.806 278.457 169.864 278.457H169.973C170.039 278.465 170.106 278.465 170.173 278.465C229.084 284.888 288.52 284.888 347.431 278.465C348.14 278.465 348.831 278.432 349.498 278.365C349.715 278.34 349.923 278.315 350.131 278.29C350.156 278.282 350.19 278.282 350.215 278.274C350.356 278.257 350.498 278.232 350.64 278.207C350.848 278.182 351.056 278.14 351.265 278.099C351.681 278.007 351.871 277.94 352.436 277.746C353.002 277.552 353.94 277.212 354.528 276.929C355.115 276.645 355.523 276.374 356.015 276.065C356.623 275.682 357.202 275.29 357.788 274.85C358.041 274.656 358.215 274.532 358.398 274.357L358.298 274.299L258.731 221.682Z" fill="#FF4B4B"/>
<path d="M402.766 145.635H402.683L311.357 193.885L362.124 269.494L408.524 150.635V150.468C409.691 146.968 406.108 143.802 402.766 145.635Z" fill="#7D353B"/>
<path d="M263.597 122.691C261.264 119.283 256.18 119.283 253.93 122.691L206.139 193.883L258.73 221.684L358.398 274.358C359.023 273.745 359.525 273.148 360.056 272.517C360.806 271.592 361.506 270.6 362.123 269.492L311.356 193.883L263.597 122.691Z" fill="#BD4043"/>
<path d="M583.705 163.429H602.096C601.253 139.75 579.413 122.048 549.067 122.048C519.027 122.048 495.425 139.52 495.425 165.881C495.425 187.032 510.751 199.599 535.273 206.649L554.585 212.167C571.137 216.765 585.85 222.589 585.85 238.222C585.85 255.387 569.298 266.729 547.534 266.729C528.836 266.729 512.284 258.453 510.751 240.674H491.133C492.972 266.422 513.816 283.894 547.534 283.894C583.705 283.894 604.242 263.97 604.242 238.528C604.242 209.102 576.348 199.599 560.102 195.308L544.163 191.016C532.514 187.951 513.816 181.821 513.816 164.962C513.816 149.942 527.61 138.907 548.454 138.907C567.459 138.907 581.866 147.949 583.705 163.429ZM679.911 163.429H654.776V135.228H636.69V163.429H618.912V178.755H636.69V252.322C636.69 272.859 653.243 282.668 668.569 282.668C675.313 282.668 679.604 281.442 682.057 280.523L678.378 264.277C676.846 264.583 674.393 265.196 670.408 265.196C662.439 265.196 654.776 262.744 654.776 247.418V178.755H679.911V163.429ZM702.799 281.136H720.884V206.649C720.884 190.71 733.452 179.062 750.618 179.062C755.446 179.062 760.427 179.981 761.653 180.288V161.896C759.584 161.743 754.832 161.59 752.15 161.59C738.05 161.59 725.789 169.559 721.498 181.208H720.271V163.429H702.799V281.136ZM824.543 283.588C848.452 283.588 865.924 271.633 871.442 253.855L853.97 248.95C849.372 261.211 838.72 267.342 824.543 267.342C803.316 267.342 788.679 253.625 787.836 228.413H873.281V220.75C873.281 176.916 847.226 161.896 822.704 161.896C790.825 161.896 769.675 187.032 769.675 223.202C769.675 259.372 790.518 283.588 824.543 283.588ZM787.836 212.78C789.062 194.465 802.013 178.142 822.704 178.142C842.322 178.142 854.889 192.856 854.889 212.78H787.836ZM931.114 283.894C951.651 283.894 962.38 272.859 966.058 265.196H966.978V281.136H985.063V203.584C985.063 166.188 956.556 161.896 941.536 161.896C923.757 161.896 903.526 168.027 894.33 189.484L911.496 195.614C915.481 187.032 924.907 177.836 942.149 177.836C958.778 177.836 966.978 186.648 966.978 201.745V202.358C966.978 211.094 958.088 210.328 936.631 213.086C914.791 215.922 890.959 220.75 890.959 247.724C890.959 270.714 908.737 283.894 931.114 283.894ZM933.873 267.649C919.466 267.649 909.044 261.211 909.044 248.644C909.044 234.85 921.611 230.559 935.712 228.719C943.375 227.8 963.912 225.654 966.978 221.976V238.528C966.978 253.242 955.329 267.649 933.873 267.649ZM1013.76 281.136H1031.84V207.569C1031.84 190.327 1044.41 178.142 1058.51 178.142C1072.23 178.142 1081.81 187.108 1081.81 200.519V281.136H1100.2V204.504C1100.2 189.331 1109.7 178.142 1126.25 178.142C1139.13 178.142 1150.16 184.963 1150.16 202.358V281.136H1168.25V202.358C1168.25 174.694 1153.38 161.896 1132.38 161.896C1115.52 161.896 1103.19 169.636 1097.13 181.821H1095.91C1090.08 169.253 1079.81 161.896 1064.33 161.896C1049.01 161.896 1037.67 169.253 1032.76 181.821H1031.23V163.429H1013.76V281.136ZM1215.08 124.193H1197V281.136H1215.08V124.193ZM1243.89 281.136H1261.98V163.429H1243.89V281.136ZM1253.09 143.811C1260.14 143.811 1265.96 138.294 1265.96 131.55C1265.96 124.806 1260.14 119.289 1253.09 119.289C1246.04 119.289 1240.21 124.806 1240.21 131.55C1240.21 138.294 1246.04 143.811 1253.09 143.811ZM1341.97 163.429H1316.84V135.228H1298.75V163.429H1280.98V178.755H1298.75V252.322C1298.75 272.859 1315.31 282.668 1330.63 282.668C1337.38 282.668 1341.67 281.442 1344.12 280.523L1340.44 264.277C1338.91 264.583 1336.46 265.196 1332.47 265.196C1324.5 265.196 1316.84 262.744 1316.84 247.418V178.755H1341.97V163.429Z" fill="white"/>
</svg>
